<svg xmlns="http://www.w3.org/2000/svg" version="1.1" xmlns:xlink="http://www.w3.org/1999/xlink" xmlns:svgjs="http://svgjs.dev/svgjs" viewBox="0 0 800 800"><defs><linearGradient x1="50%" y1="0%" x2="50%" y2="100%" id="ccchaos-grad"><stop stop-color="rgb(159, 8, 252)" stop-opacity="1" offset="0%"></stop><stop stop-color="rgb(159, 8, 252)" stop-opacity="1" offset="100%"></stop></linearGradient></defs><g stroke-width="3.5" stroke="url(#ccchaos-grad)" fill="none" stroke-linecap="round"><path d="M391.32 -0.68C397.91 -0.6 404.31 -0.19 410.52 0.55 416.71 1.48 422.71 2.71 428.5 4.24 437.06 6.88 453.1 13.55 460.58 17.46 467.84 21.59 481.41 30.48 487.77 35.12 494.05 39.69 506.2 48.78 512.21 53.23 518.46 57.44 531.62 65.49 538.77 69.33 543.91 71.72 549.31 74.09 555.02 76.46 561.11 78.69 567.58 80.94 574.44 83.2 581.74 85.36 589.47 87.56 597.65 89.83 606.25 92.02 615.29 94.3 624.76 96.68 634.56 99.03 644.71 101.51 655.16 104.13 665.78 106.76 676.55 109.54 687.37 112.5 698.11 115.5 708.71 118.69 719.03 122.07 728.95 125.52 738.36 129.17 747.11 133.03 755.13 136.97 762.27 141.13 768.39 145.48 775.48 152.27 781.83 166.98 780.93 174.87 778.86 180.29 775.61 185.88 771.29 191.62 766.27 197.46 760.48 203.43 754.09 209.53 747.57 215.72 740.9 222.02 734.3 228.42 728.28 234.89 722.81 241.44 718.15 248.07 714.71 254.75 712.47 261.5 711.61 268.29 712.38 275.13 714.73 282 718.68 288.89 724.31 295.81 731.44 302.75 739.94 309.69 749.7 316.65 760.42 323.6 771.82 330.53 783.66 337.48 795.54 344.39 807.1 351.27 818.08 358.15 828.05 364.99 836.67 371.76 843.78 378.54 849 385.25 852.13 391.88 853.21 398.51 852.03 404.98 848.67 411.28 843.41 417.57 836.28 423.69 827.54 429.62 817.57 435.55 806.59 441.3 794.93 446.86 783.01 452.41 771.1 457.77 759.52 462.95 748.64 468.11 738.66 473.09 729.8 477.89 719.31 484.99 708.23 498.35 707.68 504.64 710.71 510.84 723.58 522.72 732.17 528.5 738.42 532.42 744.59 536.31 750.46 540.18 758.57 546.23 769.72 558.87 772.04 565.61 772.21 570.39 771.15 575.36 768.88 580.53 765.57 585.99 761.1 591.7 755.57 597.67 749.13 603.97 741.79 610.57 733.66 617.47 724.88 624.7 715.53 632.24 705.73 640.08 695.58 648.24 685.19 656.67 674.68 665.37 664.09 674.31 653.55 683.45 643.15 692.76 632.89 702.18 622.88 711.69 613.17 721.2 603.74 730.68 594.68 740.06 585.99 749.24 577.65 758.21 569.7 766.84 562.12 775.07 554.9 782.87 548.03 790.12 541.47 796.73 535.23 802.74 529.27 807.97 523.53 812.38 515.4 817.42 500.15 821.58 492.84 820.63 488.11 818.9 483.38 816.26 478.61 812.74 473.91 808.62 469.15 803.76 464.28 798.25 459.46 792.4 454.51 786.11 449.42 779.49 444.35 772.88 439.13 766.2 433.74 759.57 428.35 753.34 422.8 747.43 417.07 741.95 411.33 737.23 405.42 733.17 399.34 729.86 393.26 727.56 387.01 726.15 380.59 725.69 374.18 726.34 367.68 727.92 361.13 730.39 354.58 733.87 347.98 738.08 341.33 742.94 334.71 748.53 328.07 754.55 321.41 760.85 314.78 767.54 308.16 774.26 301.56 780.88 295.01 787.49 288.49 793.76 282.02 799.55 275.62 805 269.29 809.77 263.05 813.79 256.88 817.2 250.82 819.71 244.88 821.3 236.17 822.04 219.63 817.42 211.84 812.16 206.8 807.6 201.94 802.23 197.26 796.1 192.67 789.37 188.26 782.01 184.04 774.11 179.87 765.8 175.88 757.09 172.04 748.07 168.24 738.84 164.58 729.43 161.05 719.93 157.5 710.41 154.05 700.92 150.69 691.51 147.26 682.23 143.88 673.13 140.54 664.24 137.08 655.6 133.63 647.23 130.18 639.14 126.57 631.37 122.93 623.91 119.26 616.77 115.42 609.95 111.53 603.45 107.6 597.24 103.51 591.35 99.4 585.73 95.26 580.35 90.99 575.27 86.73 570.39 82.5 565.68 78.2 561.22 73.96 556.88 69.81 552.65 63.64 546.61 52.13 534.91 46.9 529.11 42.04 523.4 33.67 511.6 30.17 505.44 27.07 499.18 22.09 485.85 20.15 478.76 18.44 471.48 15.79 455.96 14.81 447.73 14.16 442.16 13.63 436.41 13.23 430.48 12.77 424.53 12.43 418.41 12.21 412.11 11.94 405.81 11.78 399.33 11.75 392.69 11.66 386.05 11.7 379.33 11.87 372.54 11.98 365.75 12.22 358.91 12.6 352.01 12.93 345.12 13.41 338.19 14.02 331.23 14.62 324.29 15.38 317.32 16.29 310.35 17.23 303.4 18.35 296.44 19.66 289.5 21.03 282.59 22.61 275.7 24.41 268.84 26.3 262.03 28.43 255.27 30.79 248.56 33.26 241.91 35.97 235.33 38.91 228.83 41.94 222.41 45.2 216.08 48.65 209.86 52.16 203.73 55.85 197.72 59.68 191.86 63.51 186.08 67.45 180.46 71.48 175.01 75.44 169.65 79.45 164.48 83.48 159.48 87.39 154.6 91.3 149.91 95.18 145.41 100.76 138.94 111.5 127.14 116.67 121.82 121.59 116.82 131.31 107.82 136.19 103.78 141.05 99.92 151.27 92.81 156.74 89.48 162.43 86.14 174.84 79.55 181.6 76.24 188.72 72.72 204.12 65.39 212.37 61.56 218.05 58.82 223.89 56.06 229.88 53.28 235.99 50.35 242.22 47.4 248.57 44.46 255.02 41.38 261.56 38.33 268.18 35.32 274.89 32.22 281.65 29.18 288.46 26.24 295.33 23.26 302.23 20.41 309.13 17.71 316.09 15.03 323.04 12.54 329.97 10.26 336.93 8.06 343.86 6.1 350.74 4.41 357.65 2.86 364.49 1.59 371.25 0.65 378.03 -0.12 384.72 -0.57 391.31 -0.68" stroke-dasharray="1 3" transform="rotate(0, 400, 400)" opacity="0.14"></path><path d="M381.07 11.41C387.28 11.49 393.33 11.91 399.21 12.65 407.95 14.19 424.58 18.96 432.47 22.11 440.2 25.62 454.9 33.69 461.92 38.12 468.88 42.63 482.48 51.94 489.23 56.64 496.16 61.18 510.52 70.02 518.14 74.28 523.5 76.95 529.06 79.59 534.87 82.2 540.96 84.64 547.35 87.07 554.06 89.48 561.1 91.75 568.49 94.01 576.25 96.28 584.35 98.43 592.81 100.61 601.64 102.83 610.76 104.97 620.2 107.17 629.92 109.45 639.82 111.67 649.91 114 660.11 116.45 670.31 118.88 680.48 121.44 690.52 124.15 700.31 126.88 709.78 129.78 718.81 132.84 727.32 135.95 735.19 139.24 742.3 142.72 751.32 148.13 762.94 160.03 765.19 166.5 764.8 173.3 757.19 187.9 750.45 195.67 745.22 200.99 739.45 206.45 733.32 212.05 727.27 217.72 721.26 223.52 715.51 229.41 710.45 235.38 706.06 241.45 702.54 247.59 700.24 253.8 699.14 260.07 699.36 266.4 701.11 272.78 704.3 279.2 708.95 285.65 715.1 292.15 722.56 298.66 731.2 305.18 740.92 311.73 751.41 318.28 762.44 324.81 773.77 331.37 785.06 337.9 795.97 344.4 806.29 350.91 815.62 357.39 823.66 363.81 830.3 370.24 835.18 376.61 838.12 382.91 839.18 389.22 838.15 395.37 835.11 401.38 830.31 407.37 823.75 413.22 815.67 418.9 806.42 424.58 796.15 430.1 785.18 435.46 773.88 440.81 762.48 446.01 751.27 451.04 740.59 456.08 730.62 460.96 721.58 465.69 713.73 470.44 707.12 475.04 701.85 479.51 696.88 486.19 695.89 499.09 699.34 505.37 703.07 509.61 707.51 513.81 712.46 517.98 717.96 522.27 723.58 526.56 729.12 530.89 734.64 535.37 739.73 539.92 744.22 544.56 749.79 551.88 755.13 567.61 754.54 576.14 752.87 582.17 750.11 588.42 746.31 594.93 741.64 601.72 736.04 608.78 729.59 616.09 722.44 623.68 714.6 631.53 706.19 639.62 697.31 647.94 688.04 656.47 678.48 665.19 668.69 674.06 658.77 683.05 648.82 692.12 638.85 701.22 628.97 710.32 619.24 719.34 609.65 728.24 600.29 736.97 591.2 745.44 582.34 753.62 573.79 761.43 565.55 768.78 557.58 775.68 549.92 782 542.56 787.67 535.48 792.75 528.67 797.07 522.11 800.59 515.79 803.41 509.68 805.37 503.76 806.44 495.23 806.5 478.96 801.21 471.08 796.04 465.93 791.83 460.79 786.98 455.62 781.57 450.51 775.9 445.36 769.86 440.13 763.56 434.93 757.33 429.65 751.05 424.27 744.86 418.9 739.07 413.42 733.59 407.83 728.53 402.23 724.17 396.52 720.44 390.68 717.4 384.84 715.29 378.88 714.01 372.8 713.58 366.73 714.18 360.61 715.64 354.46 717.91 348.32 721.11 342.15 724.99 335.98 729.47 329.83 734.65 323.67 740.23 317.54 746.1 311.43 752.35 305.35 758.67 299.32 764.93 293.32 771.23 287.39 777.25 281.53 782.88 275.72 788.24 270 793.02 264.39 797.14 256.12 802.15 240.31 807.06 232.81 806.79 225.58 804.53 212.01 794.62 205.69 787.19 201.57 781.39 197.61 774.96 193.81 767.96 190.03 760.51 186.38 752.62 182.86 744.37 179.33 735.84 175.91 727.07 172.57 718.12 169.18 709.08 165.85 699.98 162.57 690.87 159.19 681.81 155.83 672.84 152.48 664 148.98 655.32 145.47 646.83 141.93 638.57 138.23 630.53 134.48 622.75 130.69 615.23 126.73 607.99 122.72 601.01 118.67 594.3 114.47 587.87 110.24 581.69 106 575.74 101.65 570.06 97.32 564.6 93.03 559.32 88.68 554.27 84.42 549.37 80.25 544.61 74.09 537.79 62.67 524.74 57.52 518.38 52.77 512.17 44.66 499.67 41.33 493.28 38.42 486.85 33.89 473.46 32.2 466.43 30.76 459.27 28.68 444.18 27.98 436.24 27.32 428.12 26.43 411.06 26.17 402.13 25.95 396.12 25.81 389.96 25.76 383.65 25.63 377.34 25.59 370.96 25.65 364.52 25.64 358.09 25.73 351.6 25.94 345.07 26.1 338.56 26.39 332.01 26.82 325.44 27.23 318.89 27.8 312.33 28.54 305.76 29.31 299.22 30.27 292.69 31.43 286.18 32.66 279.71 34.12 273.26 35.81 266.86 37.6 260.51 39.64 254.21 41.93 247.98 44.33 241.81 46.99 235.72 49.88 229.72 52.88 223.79 56.1 217.97 59.53 212.27 63.04 206.64 66.72 201.15 70.56 195.79 74.41 190.53 78.38 185.42 82.44 180.47 86.46 175.62 90.53 170.94 94.63 166.43 100.62 159.91 112.32 147.93 117.97 142.47 123.33 137.32 133.6 127.99 138.56 123.79 143.31 119.79 152.76 112.45 157.56 109.07 162.38 105.7 172.57 99.2 178.02 95.99 183.69 92.63 196 85.69 202.65 82.08 209.62 78.2 224.58 70.06 232.53 65.8 237.97 62.81 243.56 59.81 249.28 56.81 255.08 53.69 260.99 50.59 267 47.54 273.09 44.41 279.25 41.35 285.48 38.38 291.77 35.39 298.1 32.52 304.46 29.81 310.87 27.12 317.3 24.63 323.73 22.34 330.18 20.15 336.63 18.19 343.05 16.51 349.48 14.95 355.88 13.7 362.22 12.75 368.57 11.97 374.85 11.52 381.06 11.41" stroke-dasharray="8 2" transform="rotate(3.4827586206896552, 400, 400)" opacity="0.92"></path><path d="M373.13 23.52C381.88 23.8 398.8 26.27 406.95 28.39 414.99 31 430.53 37.63 438.07 41.53 445.57 45.68 460.34 54.65 467.71 59.36 472.7 62.46 477.72 65.61 482.79 68.79 487.99 71.87 493.28 74.95 498.69 78.04 504.27 80.98 510.02 83.9 515.95 86.8 522.1 89.54 528.49 92.25 535.12 94.94 542.01 97.46 549.18 99.95 556.65 102.42 564.37 104.74 572.4 107.05 580.73 109.36 598.07 113.58 616.41 117.91 635.47 122.42 654.65 126.66 673.68 131.26 691.88 136.3 708.6 141.34 723.17 146.96 734.8 153.21 745.61 163.22 746.25 180.71 742.25 187.16 738.66 191.59 734.32 196.18 729.36 200.92 724.17 205.73 718.65 210.69 712.97 215.79 707.56 220.95 702.34 226.24 697.53 231.64 693.49 237.11 690.19 242.67 687.79 248.33 686.61 254.04 686.57 259.84 687.78 265.69 690.41 271.6 694.35 277.56 699.59 283.56 706.15 289.6 713.85 295.67 722.55 301.77 732.14 307.89 742.36 314.02 752.98 320.16 763.79 326.31 774.47 332.46 784.74 338.59 794.41 344.73 803.12 350.84 810.62 356.92 816.8 363.01 821.35 369.05 824.12 375.05 825.15 381.04 824.27 386.91 821.52 392.65 817.15 398.39 811.15 404 803.7 409.48 795.14 414.95 785.58 420.29 775.3 425.51 764.63 430.72 753.76 435.8 742.97 440.76 732.56 445.72 722.69 450.57 713.58 455.31 705.46 460.06 698.4 464.72 692.51 469.28 686.28 476.14 682.08 489.62 683.77 496.3 686.33 500.84 689.67 505.37 693.63 509.92 698.24 514.58 703.14 519.3 708.14 524.07 713.32 529 718.27 534.03 722.85 539.17 727.15 544.5 730.81 549.97 733.75 555.61 737.72 567.52 737.92 580.22 734.29 593.8 727.46 608.3 717.16 623.67 703.98 639.83 688.65 656.61 671.57 673.85 653.49 691.22 634.78 708.46 616.05 725.14 597.76 740.79 588.76 748.15 579.97 755.1 571.41 761.55 563.02 767.55 554.88 772.96 546.99 777.72 539.31 781.9 531.88 785.36 524.69 788.05 517.69 790.09 510.92 791.33 504.35 791.75 497.95 791.51 491.72 790.47 485.64 788.63 479.7 786.21 473.88 783.06 468.15 779.23 462.52 774.99 456.96 770.19 451.43 764.92 445.98 759.47 440.53 753.71 435.09 747.74 429.69 741.88 424.26 736.01 418.81 730.25 413.37 724.88 407.88 719.82 402.34 715.16 396.8 711.17 391.2 707.74 385.54 704.96 377.01 702.45 359.64 702.7 350.96 705.44 345.17 708.38 339.41 711.94 333.67 716.06 327.95 720.84 322.25 726 316.61 731.45 310.99 737.28 305.42 743.19 299.92 749.08 294.45 755.06 289.07 760.81 283.77 766.24 278.51 771.47 273.36 776.2 268.32 780.38 260.89 785.64 246.74 791.66 240.05 792.22 233.57 790.98 221.39 783.49 215.67 777.39 211.92 772.5 208.29 766.98 204.79 760.88 201.27 754.32 197.85 747.29 194.52 739.84 187.7 724.06 181.1 707.29 174.63 690.01 167.65 672.63 160.6 655.42 153.41 638.7 145.55 622.63 137.49 607.37 129.26 592.99 120.5 579.55 111.74 566.98 103.11 555.21 98.74 549.64 94.47 544.24 90.31 538.98 86.18 533.9 82.21 528.94 78.42 524.07 72.97 517.02 63.36 503.34 59.27 496.61 55.64 489.98 49.84 476.6 47.64 469.78 45.81 462.93 43.23 448.74 42.4 441.37 41.7 433.88 40.83 418.26 40.59 410.12 40.3 401.84 39.89 384.61 39.76 375.67 39.59 369.67 39.49 363.61 39.45 357.52 39.33 351.43 39.29 345.3 39.35 339.15 39.35 333 39.47 326.84 39.72 320.67 39.96 314.52 40.35 308.37 40.9 302.23 41.5 296.12 42.29 290.03 43.29 283.97 44.37 277.94 45.68 271.96 47.23 266.03 48.9 260.15 50.83 254.33 53 248.59 55.31 242.91 57.87 237.32 60.68 231.82 63.61 226.39 66.78 221.07 70.16 215.88 73.62 210.75 77.28 205.76 81.1 200.92 84.95 196.15 88.93 191.53 93.02 187.07 97.08 182.69 101.2 178.47 105.37 174.42 113.42 166.55 121.45 159.37 129.36 152.88 136.61 146.6 143.69 140.95 150.6 135.9 156.9 130.85 163.18 126.25 169.56 122.04 175.6 117.55 181.97 113.26 188.74 109.09 193.88 105.67 204.9 98.57 210.83 94.85 216.99 90.87 230.23 82.51 237.29 78.15 242.11 75.1 247.08 72.04 252.19 68.99 257.36 65.83 262.65 62.7 268.06 59.61 273.52 56.46 279.08 53.38 284.73 50.4 290.42 47.4 296.18 44.53 301.99 41.82 307.85 39.14 313.74 36.65 319.66 34.38 325.6 32.19 331.56 30.25 337.51 28.57 343.49 27.04 349.45 25.79 355.39 24.85 361.33 24.08 367.25 23.63 373.12 23.52" stroke-dasharray="1 8" transform="rotate(6.9655172413793105, 400, 400)" opacity="0.47"></path><path d="M368.48 35.63C376.84 35.91 393.22 38.33 401.24 40.42 409.22 43.01 424.93 49.57 432.72 53.44 443.19 58.87 453.68 64.86 464.31 71.25 475.31 77.43 486.7 83.77 498.63 90.16 511.21 96.03 524.58 101.82 538.85 107.5 553.9 112.55 569.93 117.49 586.84 122.36 604.27 126.68 622.24 131.05 640.38 135.53 658.12 139.67 675.17 144.1 690.85 148.87 704.74 153.55 716.18 158.73 724.56 164.44 729.99 170.26 731.8 176.69 729.89 183.75 725.35 191.03 717.9 198.94 708.31 207.44 698.53 216.19 688.8 225.5 680.45 235.29 675.4 245.29 673.93 255.71 676.86 266.46 684.92 277.36 697.5 288.52 713.95 299.84 723.36 305.53 733.26 311.26 743.43 317 753.7 322.75 763.79 328.52 773.42 334.28 782.45 340.06 790.57 345.83 797.53 351.58 803.27 357.34 807.52 363.08 810.11 368.79 811.12 374.5 810.37 380.12 807.9 385.63 803.94 391.14 798.46 396.55 791.63 401.86 783.73 407.17 774.86 412.38 765.26 417.49 755.23 422.6 744.93 427.62 734.6 432.55 714.9 442.45 697.52 452.06 683.68 461.42 674.44 470.94 669.73 480.36 669.28 489.77 673.09 499.54 679.66 509.48 687.8 519.73 697.23 530.54 705.95 541.86 712.97 553.78 718.37 566.44 720.7 579.83 719.69 593.96 715.9 608.81 708.78 624.33 698.74 640.39 686.45 656.81 672.07 673.4 656.24 689.84 639.37 705.89 621.95 721.16 604.48 735.2 587 747.85 570 758.55 553.69 766.86 537.88 772.99 522.88 776.28 508.68 776.57 495.03 774.56 482.06 769.74 469.65 762.36 457.62 753.63 445.95 743.31 434.55 732.04 428.91 726.55 423.31 721.09 417.73 715.75 412.17 710.79 406.62 706.14 401.08 701.86 395.54 698.2 390 695.07 384.45 692.53 376.11 690.25 359.39 690.49 351.14 693 345.66 695.68 340.23 698.94 334.87 702.72 329.51 707.11 324.22 711.87 319.01 716.9 313.81 722.31 308.69 727.83 303.66 733.35 293.65 744.64 284.04 754.92 274.91 763.53 265.87 770.75 257.33 775.37 249.32 777.15 241.37 776.61 233.91 773.06 226.92 766.69 219.84 758.14 213.12 747.23 206.67 734.39 199.89 720.2 193.21 704.82 186.54 688.69 179.31 672.21 171.94 655.61 164.38 639.22 156.18 623.22 147.8 607.77 139.28 593.02 130.32 579 121.42 565.72 112.73 553.18 104.03 541.39 95.84 530.19 88.35 519.49 81.29 509.35 75.14 499.51 70.01 489.84 65.48 480.51 61.96 471.16 59.44 461.7 57.3 452.39 55.95 442.84 55.28 432.97 54.84 425.55 54.41 410.24 54.34 402.33 54.19 394.32 53.91 377.78 53.77 369.26 53.48 360.67 52.98 343.38 52.83 334.7 52.67 326.03 52.91 308.74 53.4 300.16 54.31 288.8 56.06 277.6 58.73 266.65 61.9 255.86 66.12 245.39 71.36 235.33 77.15 225.49 83.84 216.12 91.31 207.32 99 198.76 107.17 190.8 115.65 183.47 123.87 176.37 132.12 169.89 140.29 164.05 147.86 158.31 155.23 153.12 162.41 148.44 168.95 143.67 175.4 139.26 181.82 135.15 187.8 130.7 193.97 126.38 200.4 122.12 206.68 117.31 213.42 112.43 220.64 107.46 227.95 101.85 235.83 96.12 244.27 90.31 252.89 83.98 262.07 77.68 271.72 71.54 281.55 65.17 291.79 59.18 302.36 53.74 307.68 51.09 313.07 48.62 318.51 46.36 326.72 43.24 343.33 38.48 351.69 36.94 357.28 36.18 362.87 35.74 368.47 35.63" stroke-dasharray="7 5" transform="rotate(10.448275862068966, 400, 400)" opacity="0.66"></path><path d="M367.67 47.73C378.43 48.07 389.11 49.67 399.74 52.44 410.4 55.78 421.08 60.11 431.83 65.27 442.75 70.66 453.89 76.62 465.34 82.99 477.15 89.21 489.47 95.6 502.4 102.07 515.86 108.07 530.06 114.02 545.04 119.85 560.53 125.08 576.71 130.2 593.42 135.23 610.24 139.69 627.14 144.16 643.71 148.68 659.48 152.82 674.11 157.16 687 161.76 697.95 166.2 706.32 171.04 711.68 176.33 714.38 181.64 713.86 187.5 710.18 193.91 704.55 200.45 696.75 207.59 687.57 215.28 678.83 223.15 670.71 231.57 664.34 240.47 661.37 249.54 661.91 259.04 666.54 268.91 675.78 278.9 688.96 289.19 705.37 299.7 724.14 310.28 743.59 321.03 762 331.86 778.05 342.73 789.87 353.64 796.1 364.55 796.61 375.46 790.8 386.09 779.44 396.44 764.08 406.8 745.75 416.89 726.14 426.75 707.07 436.68 689.75 446.45 675.33 456.12 664.85 465.96 658.4 475.84 655.9 485.82 657.48 496.15 661.93 506.75 668.31 517.71 676.44 529.19 684.54 541.18 691.66 553.73 697.88 566.9 701.72 580.69 702.8 595.07 701.6 609.96 697.37 625.32 690.32 640.98 681.08 656.75 669.57 672.45 656.31 687.75 641.76 702.46 626.22 716.21 610.17 728.57 593.76 739.51 577.41 748.48 561.39 755.13 545.58 759.73 530.33 761.71 515.73 760.94 501.51 758.17 487.91 752.92 474.92 745.44 462.24 736.91 450.02 727.05 438.2 716.45 426.56 706.46 415.18 696.97 404.02 688.61 392.91 682.59 381.93 678.69 371.08 677.26 360.23 678.99 349.74 683.17 339.62 689.44 329.49 698 319.75 707.65 310.44 717.73 301.14 728.36 292.29 738.19 283.91 746.64 275.55 753.98 267.66 759.06 260.25 761.63 252.77 762.16 245.7 759.95 239 755.11 232.09 748.23 225.41 739.05 218.89 727.92 211.96 715.39 205.02 701.51 198.01 686.69 190.41 671.32 182.64 655.59 174.67 639.81 166.12 624.18 157.42 608.86 148.64 594.03 139.54 579.72 130.57 566.03 121.9 552.96 113.32 540.51 105.33 528.63 98.09 517.25 91.34 506.4 85.55 495.89 80.79 485.65 76.65 475.75 73.52 465.95 71.39 456.17 69.64 446.56 68.65 436.84 68.31 426.95 67.92 417.13 67.9 407.05 68.15 396.71 67.94 386.38 67.83 375.75 67.78 364.83 67.16 353.92 66.67 342.99 66.37 332.1 65.77 321.25 65.63 310.47 66.04 299.85 66.6 289.31 68 278.98 70.31 268.94 73.15 259.04 77.04 249.48 81.97 240.36 87.48 231.42 93.94 222.95 101.22 215.03 108.8 207.29 116.93 200.12 125.43 193.53 133.78 187.09 142.23 181.21 150.64 175.88 158.54 170.58 166.26 165.73 173.78 161.31 180.67 156.72 187.4 152.41 194.03 148.31 200.15 143.83 206.34 139.42 212.66 135.02 218.72 130.06 225.09 125.01 231.83 119.85 238.52 114.08 245.69 108.21 253.36 102.26 261.1 95.85 269.35 89.49 278.09 83.31 286.92 76.95 296.2 70.99 305.87 65.59 315.6 60.4 325.66 56.03 335.99 52.64 346.34 49.81 356.91 48.14 367.66 47.73" stroke-dasharray="6 6" transform="rotate(13.931034482758621, 400, 400)" opacity="0.60"></path><path d="M370.82 59.84C381.24 60.17 391.78 61.73 402.43 64.43 413.14 67.71 424.03 71.95 435.17 77.02 446.46 82.34 458.12 88.25 470.2 94.58 482.57 100.8 495.5 107.24 509.01 113.76 522.9 119.88 537.4 125.96 552.47 131.95 567.78 137.37 583.46 142.69 599.3 147.89 614.9 152.54 630.16 157.15 644.66 161.78 658.09 165.98 670.06 170.32 680.08 174.85 690.9 181.46 695.64 196.39 689.6 204.97 683.43 210.91 675.77 217.39 667.4 224.38 659.98 231.48 653.61 239.11 649.26 247.21 648.28 255.43 650.66 264.1 656.79 273.15 666.99 282.3 680.56 291.78 696.8 301.53 714.87 311.34 733.27 321.38 750.48 331.58 765.37 341.8 776.3 352.15 782.1 362.6 782.68 373.05 777.48 383.35 767.16 393.47 753.07 403.62 736.04 413.63 717.56 423.54 699.24 433.52 682.15 443.47 667.37 453.44 655.91 463.59 647.97 473.88 643.61 484.36 643.07 495.15 645.41 506.28 649.9 517.79 656.45 529.74 663.52 542.17 670.23 555.11 676.7 568.51 681.45 582.41 684.04 596.75 684.9 611.39 683.11 626.3 678.74 641.29 672.39 656.18 663.74 670.77 653.18 684.76 641.2 698.03 627.93 710.18 613.79 720.86 599 730.13 583.89 737.45 568.76 742.54 553.57 745.77 538.65 746.58 524.17 744.91 509.89 741.54 496.12 735.98 482.88 728.52 469.87 720.25 457.35 710.91 445.28 700.99 433.37 691.76 421.82 683.06 410.61 675.43 399.46 669.98 388.58 666.45 377.96 665.15 367.34 666.74 357.2 670.53 347.52 676.22 337.82 684.05 328.59 692.9 319.82 702.23 311.02 712.19 302.68 721.53 294.81 729.73 286.87 737.09 279.36 742.49 272.25 745.69 264.99 747.15 258.05 746.12 251.37 742.67 244.39 737.35 237.54 729.82 230.75 720.36 223.49 709.5 216.16 697.2 208.71 683.82 200.69 669.73 192.49 655.08 184.11 640.15 175.24 625.16 166.28 610.26 157.32 595.65 148.16 581.36 139.21 567.52 130.65 554.19 122.3 541.34 114.6 528.99 107.7 517.13 101.36 505.71 95.98 494.68 91.65 483.96 87.95 473.56 85.25 463.35 83.52 453.26 82.15 443.35 81.51 433.45 81.49 423.51 81.38 413.64 81.58 403.66 82 393.53 81.92 383.42 81.85 373.13 81.78 362.68 81.09 352.23 80.47 341.87 79.97 331.63 79.14 321.41 78.72 311.35 78.81 301.51 79.04 291.73 80.08 282.21 82.02 273.03 84.48 263.94 88 255.23 92.55 246.96 97.72 238.83 103.87 231.16 110.88 224.01 118.27 216.99 126.27 210.49 134.71 204.52 143.13 198.62 151.71 193.21 160.32 188.27 168.53 183.28 176.6 178.67 184.49 174.39 191.79 169.89 198.91 165.59 205.87 161.43 212.29 156.86 218.68 152.31 225.12 147.72 231.18 142.59 237.44 137.35 243.97 131.99 250.32 126.07 257.05 120.06 264.2 114 271.31 107.51 278.89 101.12 286.94 94.92 295 88.6 303.52 82.69 312.47 77.35 321.44 72.25 330.81 67.97 340.55 64.63 350.29 61.87 360.38 60.24 370.81 59.84" stroke-dasharray="5 5" transform="rotate(17.413793103448278, 400, 400)" opacity="0.72"></path><path d="M377.53 71.95C387.71 72.27 398.14 73.78 408.82 76.4 419.54 79.6 430.59 83.74 441.97 88.7 453.5 93.93 465.45 99.75 477.85 106.02 490.47 112.22 503.6 118.66 517.21 125.23 531.03 131.44 545.28 137.64 559.84 143.77 574.38 149.38 588.99 154.89 603.39 160.28 617.28 165.14 630.49 169.94 642.62 174.72 653.53 179.05 662.8 183.47 670.03 188.01 676.95 194.53 675.86 208.79 668.55 216.81 662.34 222.28 655.25 228.22 648.02 234.63 642.12 241.1 637.6 248.05 635.24 255.46 636.12 262.95 640.15 270.88 647.55 279.2 658.5 287.59 672.28 296.35 688.2 305.42 705.51 314.53 722.84 323.91 738.86 333.54 752.64 343.18 762.72 353.03 768.09 363.07 768.74 373.11 764.11 383.11 754.76 393.05 741.9 403.02 726.16 412.97 708.84 422.92 691.37 432.96 674.67 443.07 659.75 453.29 647.57 463.68 638.39 474.28 632.39 485.13 629.88 496.26 630.18 507.74 632.71 519.6 637.5 531.8 643.22 544.44 649.11 557.48 655.29 570.85 660.38 584.58 663.9 598.58 666.23 612.72 666.36 626.92 664.25 640.99 660.45 654.8 654.46 668.13 646.55 680.7 637.22 692.45 626.41 702.99 614.46 712.02 601.7 719.68 588.29 725.45 574.55 729.13 560.51 731.14 546.47 730.94 532.62 728.54 518.79 724.7 505.28 718.97 492.19 711.61 479.23 703.68 466.7 694.88 454.61 685.66 442.64 677.18 431.06 669.24 419.88 662.31 408.76 657.4 397.97 654.22 387.53 653.05 377.08 654.49 367.18 657.92 357.81 663.06 348.39 670.18 339.48 678.28 331.04 686.86 322.53 696.13 314.48 704.95 306.85 712.84 299.09 720.11 291.7 725.71 284.64 729.4 277.36 731.62 270.31 731.62 263.42 729.41 256.18 725.52 249 719.54 241.79 711.69 234.12 702.48 226.33 691.78 218.39 679.9 209.95 667.22 201.34 653.8 192.61 639.93 183.5 625.82 174.37 611.6 165.33 597.47 156.21 583.49 147.41 569.8 139.08 556.48 131.05 543.49 123.73 530.92 117.27 518.79 111.4 507 106.51 495.6 102.66 484.54 99.43 473.76 97.18 463.22 95.85 452.88 94.86 442.72 94.55 432.66 94.81 422.67 94.94 412.75 95.33 402.83 95.88 392.89 95.9 382.97 95.88 372.98 95.79 362.94 95.04 352.9 94.3 343.05 93.63 333.4 92.61 323.76 91.93 314.35 91.73 305.22 91.64 296.13 92.33 287.34 93.88 278.92 95.94 270.57 99.04 262.61 103.17 255.09 107.93 247.65 113.7 240.66 120.34 234.17 127.45 227.74 135.23 221.78 143.53 216.29 151.91 210.8 160.54 205.74 169.28 201.07 177.73 196.28 186.11 191.79 194.36 187.57 202.09 183.06 209.63 178.69 217.01 174.41 223.85 169.69 230.59 164.96 237.3 160.17 243.58 154.84 249.96 149.41 256.5 143.86 262.78 137.8 269.35 131.65 276.24 125.5 283 118.97 290.17 112.57 297.77 106.39 305.31 100.12 313.3 94.29 321.74 89.04 330.15 84.05 339.01 79.86 348.32 76.61 357.6 73.92 367.34 72.34 377.52 71.95" stroke-dasharray="6 8" transform="rotate(20.896551724137932, 400, 400)" opacity="0.25"></path><path d="M386.98 84.05C396.98 84.36 407.3 85.82 417.94 88.36 428.62 91.45 439.69 95.48 451.12 100.3 462.66 105.42 474.62 111.14 486.99 117.31 499.48 123.46 512.37 129.88 525.59 136.45 538.86 142.72 552.34 149.02 565.86 155.27 579.17 161.06 592.23 166.75 604.79 172.35 616.65 177.43 627.57 182.44 637.21 187.4 645.61 191.92 652.29 196.47 656.99 201.1 660.58 207.66 655.23 221.59 647.45 229.23 641.64 234.36 635.49 239.91 629.64 245.87 625.4 251.83 622.74 258.24 622.27 265.08 624.86 271.95 630.34 279.26 638.78 286.96 650.26 294.7 664.08 302.82 679.56 311.3 696.04 319.79 712.29 328.6 727.14 337.72 739.84 346.84 749.12 356.24 754.08 365.92 754.79 375.6 750.7 385.33 742.27 395.1 730.58 404.9 716.11 414.78 699.97 424.75 683.42 434.81 667.25 445.02 652.39 455.4 639.73 465.94 629.58 476.74 622.19 487.81 617.92 499.1 616.28 510.74 616.88 522.71 619.8 534.94 623.95 547.53 628.68 560.41 634.13 573.49 639.04 586.79 642.91 600.2 646.12 613.58 647.62 626.85 647.25 639.83 645.56 652.41 641.89 664.37 636.39 675.45 629.59 685.65 621.23 694.6 611.6 702.05 601.07 708.19 589.66 712.55 577.64 714.96 565.19 715.9 552.45 714.86 539.65 711.87 526.73 707.7 513.93 701.91 501.37 694.75 488.84 687.21 476.63 678.98 464.78 670.47 453 662.72 441.58 655.51 430.54 649.25 419.55 644.84 408.91 642 398.62 640.94 388.33 642.25 378.6 645.33 369.4 649.96 360.16 656.41 351.4 663.77 343.11 671.63 334.72 680.21 326.74 688.46 319.12 695.98 311.35 703.07 303.87 708.76 296.64 712.8 289.16 715.64 281.82 716.5 274.56 715.37 266.95 712.77 259.32 708.22 251.63 701.89 243.5 694.26 235.25 685.15 226.85 674.8 218.04 663.6 209.11 651.54 200.12 638.88 190.88 625.84 181.71 612.52 172.72 599.12 163.78 585.71 155.24 572.42 147.26 559.36 139.66 546.51 132.83 533.97 126.88 521.79 121.54 509.87 117.19 498.29 113.86 487.05 111.13 476.04 109.32 465.3 108.4 454.81 107.77 444.48 107.76 434.31 108.26 424.3 108.6 414.36 109.16 404.51 109.81 394.73 109.9 384.98 109.91 375.27 109.8 365.6 109 355.93 108.16 346.52 107.36 337.39 106.16 328.27 105.26 319.44 104.8 310.93 104.41 302.44 104.75 294.3 105.92 286.54 107.56 278.81 110.21 271.49 113.87 264.59 118.18 257.73 123.49 251.31 129.7 245.33 136.43 239.36 143.89 233.81 151.93 228.67 160.16 223.47 168.73 218.63 177.51 214.11 186.11 209.41 194.72 204.95 203.26 200.68 211.38 196.1 219.35 191.6 227.15 187.14 234.46 182.25 241.65 177.3 248.74 172.29 255.4 166.77 262.08 161.14 268.83 155.42 275.27 149.23 281.89 142.99 288.77 136.76 295.45 130.22 302.46 123.84 309.83 117.7 317.11 111.53 324.8 105.8 332.92 100.66 340.99 95.8 349.52 91.72 358.53 88.57 367.5 85.97 376.98 84.44 386.98 84.05" stroke-dasharray="1 6" transform="rotate(24.379310344827587, 400, 400)" opacity="0.90"></path><path d="M398.03 96.16C407.85 96.45 418.02 97.86 428.52 100.3 439.05 103.28 449.96 107.17 461.2 111.85 472.51 116.83 484.17 122.4 496.13 128.46 508.13 134.52 520.38 140.88 532.77 147.43 545.07 153.73 557.35 160.09 569.43 166.44 581.13 172.38 592.35 178.25 602.82 184.02 612.52 189.33 621.11 194.56 628.33 199.73 636.55 206.83 642.24 220.69 639.62 227.7 636.44 232.21 632.01 236.97 626.7 242.02 621.67 246.94 616.72 252.22 612.42 257.86 609.9 263.45 609.05 269.45 610.34 275.84 614.46 282.23 621.15 289.03 630.4 296.23 642.21 303.43 655.91 311.02 670.84 318.98 686.44 326.95 701.6 335.28 715.31 343.95 726.99 352.62 735.5 361.63 740.08 370.97 740.83 380.32 737.23 389.8 729.67 399.4 719.1 409.02 705.87 418.81 690.92 428.74 675.36 438.75 659.86 448.98 645.24 459.41 632.33 469.98 621.47 480.81 612.93 491.92 607.13 503.2 603.73 514.78 602.49 526.65 603.53 538.67 605.97 550.96 609.3 563.44 613.66 575.99 617.93 588.62 621.66 601.2 625.18 613.64 627.47 625.82 628.3 637.56 628.19 648.81 626.38 659.33 622.93 668.89 618.38 677.58 612.31 684.99 604.91 690.95 596.64 695.7 587.33 698.78 577.24 700.09 566.61 700.12 555.48 698.4 544.06 694.98 532.41 690.6 520.66 684.85 508.97 677.97 497.22 670.87 485.63 663.23 474.28 655.42 462.95 648.39 451.89 641.88 441.13 636.25 430.41 632.32 419.99 629.78 409.88 628.84 399.77 630.02 390.18 632.78 381.08 636.92 371.93 642.74 363.22 649.39 354.92 656.53 346.52 664.42 338.46 672.09 330.69 679.19 322.76 686.03 315.05 691.7 307.5 695.97 299.69 699.26 291.97 700.83 284.27 700.63 276.23 699.15 268.13 695.88 259.96 690.95 251.41 684.83 242.75 677.25 233.99 668.42 224.92 658.73 215.79 648.09 206.68 636.74 197.45 624.92 188.39 612.68 179.6 600.2 170.97 587.58 162.83 574.94 155.31 562.39 148.25 549.92 141.98 537.66 136.62 525.66 131.88 513.83 128.1 502.28 125.31 491.04 123.07 479.98 121.71 469.19 121.17 458.66 120.87 448.27 121.14 438.09 121.86 428.11 122.37 418.21 123.04 408.45 123.77 398.85 123.92 389.28 123.94 379.81 123.8 370.47 122.97 361.14 122.06 352.13 121.13 343.46 119.8 334.78 118.72 326.45 118.02 318.47 117.36 310.5 117.37 302.89 118.15 295.68 119.38 288.47 121.57 281.66 124.73 275.27 128.53 268.86 133.32 262.86 139.03 257.27 145.29 251.63 152.33 246.36 160.01 241.45 167.97 236.42 176.36 231.68 185.03 227.2 193.66 222.51 202.39 217.99 211.12 213.6 219.55 208.88 227.88 204.2 236.08 199.54 243.85 194.43 251.5 189.27 259.03 184.03 266.15 178.32 273.23 172.52 280.33 166.64 287.09 160.35 293.97 154.04 301 147.78 307.81 141.27 314.88 134.93 322.24 128.87 329.46 122.81 337.05 117.22 345.04 112.21 352.95 107.5 361.3 103.56 370.12 100.51 378.9 98.01 388.19 96.53 398.02 96.16" stroke-dasharray="8 1" transform="rotate(27.862068965517242, 400, 400)" opacity="0.51"></path><path d="M409.31 108.26C418.95 108.55 428.89 109.89 439.11 112.22 449.37 115.09 459.92 118.82 470.72 123.33 481.56 128.15 492.62 133.56 503.85 139.46 515.04 145.42 526.3 151.68 537.51 158.16 548.52 164.46 559.3 170.85 569.67 177.26 579.57 183.31 588.81 189.33 597.14 195.27 604.7 200.79 611.08 206.23 616.09 211.61 621.31 219.05 622.48 233.45 618.76 240.61 615.41 245.18 611.26 249.94 606.67 254.93 600.93 262.32 596.1 278.53 599.42 287.46 604.84 293.48 612.53 299.9 622.37 306.7 634.32 313.47 647.75 320.64 662.04 328.19 676.7 335.72 690.78 343.63 703.39 351.92 714.09 360.2 721.86 368.86 726.07 377.9 726.86 386.94 723.72 396.17 716.97 405.57 707.47 415 695.43 424.63 681.67 434.46 667.16 444.35 652.42 454.48 638.21 464.83 625.28 475.28 613.95 486 604.54 496.96 597.47 508.03 592.52 519.35 589.57 530.88 588.79 542.49 589.49 554.26 591.27 566.1 594.28 577.91 597.57 589.67 600.71 601.26 604.03 612.6 606.56 623.57 608.04 633.98 608.95 643.85 608.5 652.92 606.65 660.99 603.94 668.2 599.84 674.18 594.46 678.76 588.28 682.26 581.02 684.23 572.86 684.59 564.15 683.87 554.77 681.62 544.91 677.9 534.76 673.44 524.32 667.83 513.74 661.28 503.04 654.66 492.33 647.63 481.7 640.51 471.05 634.17 460.54 628.34 450.22 623.3 439.91 619.82 429.81 617.58 419.93 616.73 410.05 617.8 400.6 620.26 391.57 623.94 382.49 629.15 373.77 635.13 365.38 641.59 356.89 648.79 348.67 655.86 340.67 662.49 332.5 669.01 324.48 674.57 316.55 678.94 308.39 682.55 300.26 684.67 292.11 685.24 283.68 684.72 275.17 682.59 266.6 678.93 257.73 674.19 248.79 668.06 239.79 660.69 230.61 652.49 221.45 643.3 212.4 633.32 203.34 622.81 194.54 611.77 186.11 600.36 177.94 588.73 170.33 576.93 163.38 565.1 156.94 553.24 151.32 541.47 146.59 529.87 142.48 518.36 139.29 507.06 137.04 496.01 135.3 485.08 134.37 474.4 134.19 463.97 134.19 453.65 134.69 443.56 135.58 433.69 136.22 423.9 136.99 414.29 137.76 404.88 137.95 395.5 137.97 386.29 137.81 377.26 136.95 368.23 135.98 359.57 134.96 351.3 133.52 343.01 132.29 335.09 131.38 327.56 130.48 320.01 130.19 312.84 130.61 306.06 131.43 299.26 133.15 292.85 135.8 286.82 139.05 280.75 143.28 275.05 148.42 269.71 154.14 264.28 160.66 259.18 167.87 254.37 175.44 249.4 183.51 244.67 191.95 240.15 200.47 235.38 209.17 230.73 217.95 226.17 226.56 221.27 235.14 216.39 243.64 211.49 251.81 206.18 259.87 200.8 267.83 195.35 275.42 189.47 282.95 183.52 290.44 177.52 297.62 171.16 304.85 164.82 312.18 158.55 319.26 152.1 326.53 145.84 334.03 139.89 341.37 133.99 349 128.55 356.98 123.7 364.87 119.15 373.15 115.36 381.86 112.44 390.53 110.04 399.67 108.62 409.3 108.26" stroke-dasharray="6 6" transform="rotate(31.344827586206897, 400, 400)" opacity="0.54"></path><path d="M419.46 120.37C428.86 120.64 438.48 121.91 448.29 124.13 458.11 126.87 468.13 130.44 478.28 134.75 488.42 139.39 498.65 144.62 508.88 150.34 519.01 156.14 529.04 162.28 538.83 168.66 548.37 174.91 557.5 181.29 566.05 187.71 574.12 193.85 581.39 199.97 587.7 206.04 593.3 211.75 597.74 217.39 600.89 222.97 603.74 230.75 601.9 245.76 597.84 253.15 593.02 260.26 583.99 275.08 581.96 282.96 582.75 288.18 585.17 293.71 589.45 299.57 595.96 305.36 604.4 311.5 614.62 318 626.53 324.46 639.55 331.29 653.12 338.51 666.83 345.69 679.83 353.26 691.37 361.22 701.12 369.16 708.2 377.51 712.07 386.26 712.88 395.01 710.16 403.97 704.18 413.14 695.68 422.33 684.81 431.75 672.22 441.37 658.78 451.05 644.9 460.96 631.25 471.09 618.5 481.29 606.94 491.72 596.92 502.34 588.83 513.03 582.58 523.9 578.12 534.88 575.66 545.88 574.66 556.94 574.82 567.96 576.33 578.86 578.38 589.61 580.6 600.07 583.3 610.22 585.58 619.89 587.2 628.94 588.59 637.42 588.96 645.07 588.2 651.71 585.58 659.87 573.51 668.45 564.43 668.54 557.56 667.24 549.92 664.6 541.67 660.71 533.1 656.27 524.08 650.88 514.76 644.72 505.29 638.61 495.63 632.2 485.89 625.76 476.1 620.09 466.3 614.89 456.55 610.42 446.8 607.35 437.12 605.37 427.55 604.62 417.97 605.58 408.71 607.76 399.76 611.01 390.77 615.65 382.04 620.99 373.54 626.78 364.97 633.31 356.57 639.77 348.31 645.91 339.91 652.05 331.59 657.41 323.32 661.79 314.85 665.59 306.37 668.12 297.86 669.29 289.13 669.57 280.34 668.42 271.5 665.87 262.47 662.37 253.41 657.57 244.37 651.59 235.26 644.82 226.25 637.05 217.44 628.45 208.73 619.3 200.36 609.54 192.44 599.31 184.86 588.79 177.88 577.99 171.61 567.05 165.86 556 160.93 544.92 156.88 533.91 153.41 522.92 150.82 512.06 149.11 501.38 147.83 490.77 147.3 480.36 147.44 470.18 147.7 460.07 148.4 450.18 149.42 440.52 150.17 430.92 150.98 421.52 151.78 412.35 151.98 403.2 152 394.25 151.82 385.51 150.94 376.78 149.92 368.44 148.85 360.5 147.32 352.55 145.97 344.98 144.9 337.8 143.79 330.6 143.22 323.77 143.3 317.31 143.72 310.82 144.99 304.69 147.12 298.91 149.82 293.07 153.45 287.55 157.98 282.35 163.08 277.03 169 271.98 175.65 267.18 182.71 262.2 190.33 257.4 198.4 252.75 206.64 247.85 215.15 243.03 223.84 238.26 232.46 233.16 241.14 228.05 249.8 222.92 258.24 217.41 266.61 211.83 274.9 206.19 282.9 200.18 290.84 194.11 298.72 188.03 306.33 181.65 313.94 175.31 321.6 169.09 329.03 162.73 336.58 156.6 344.28 150.79 351.83 145.06 359.6 139.8 367.64 135.13 375.59 130.77 383.86 127.14 392.48 124.35 401.07 122.06 410.05 120.71 419.45 120.37" stroke-dasharray="3 10" transform="rotate(34.827586206896555, 400, 400)" opacity="0.90"></path><path d="M427.23 132.48C436.32 132.73 445.51 133.93 454.78 136.03 464.05 138.62 473.37 142.02 482.7 146.13 491.98 150.57 501.2 155.59 510.27 161.09 519.2 166.72 527.87 172.69 536.15 178.93 544.16 185.09 551.62 191.4 558.42 197.8 564.75 203.96 570.25 210.15 574.78 216.31 580.15 225.06 584.49 241.83 583.52 249.89 581.14 257.47 573.69 272.49 570.1 280.08 568.51 287.55 573.01 303.34 580.36 311.81 587.72 317.45 596.68 323.41 607.08 329.71 618.79 335.94 631.28 342.53 644.06 349.47 656.79 356.39 668.74 363.67 679.25 371.34 688.11 378.99 694.53 387.04 698.06 395.5 698.89 403.96 696.56 412.64 691.28 421.52 683.74 430.43 673.98 439.56 662.55 448.89 650.2 458.25 637.25 467.83 624.28 477.59 611.88 487.4 600.32 497.38 589.94 507.5 581.13 517.64 573.83 527.88 568.1 538.16 564.13 548.38 561.54 558.57 560.13 568.62 560.08 578.51 560.74 588.13 561.8 597.38 563.55 606.28 565.2 614.65 566.51 622.33 567.68 639.99 559.04 652.95 552.25 652.02 547 650.28 540.95 647.4 534.21 643.47 527.18 639.14 519.59 634.03 511.56 628.32 503.37 622.73 494.85 616.93 486.1 611.16 477.28 606.12 468.3 601.53 459.22 597.58 450.13 594.9 440.98 593.18 431.8 592.52 422.61 593.37 413.61 595.29 404.79 598.14 395.96 602.25 387.27 606.98 378.72 612.13 370.11 618 361.59 623.85 353.14 629.47 344.59 635.19 336.06 640.28 327.54 644.57 318.87 648.44 310.18 651.23 301.45 652.87 292.59 653.78 283.69 653.44 274.78 651.85 265.78 649.45 256.81 645.84 247.94 641.13 239.09 635.69 230.43 629.28 222.04 622.03 213.86 614.24 206.07 605.78 198.8 596.8 191.91 587.47 185.66 577.78 180.14 567.84 175.13 557.74 170.93 547.52 167.57 537.27 164.74 526.97 162.73 516.72 161.52 506.58 160.68 496.46 160.51 486.48 160.93 476.68 161.41 466.93 162.26 457.36 163.37 448.01 164.18 438.69 165.03 429.58 165.82 420.68 166.02 411.81 166.03 403.15 165.82 394.7 164.93 386.26 163.9 378.22 162.77 370.58 161.2 362.92 159.76 355.64 158.56 348.74 157.27 341.81 156.47 335.23 156.24 329.01 156.3 322.73 157.12 316.79 158.75 311.16 160.89 305.44 163.91 300.02 167.79 294.86 172.24 289.56 177.49 284.49 183.48 279.62 189.93 274.55 196.98 269.63 204.54 264.81 212.35 259.74 220.51 254.72 228.93 249.74 237.39 244.43 245.98 239.11 254.63 233.76 263.16 228.07 271.69 222.32 280.18 216.53 288.46 210.42 296.7 204.29 304.88 198.17 312.84 191.81 320.79 185.53 328.74 179.39 336.5 173.17 344.32 167.19 352.23 161.56 360.01 156.04 367.94 150.99 376.04 146.51 384.08 142.36 392.34 138.9 400.86 136.25 409.35 134.08 418.13 132.8 427.22 132.48" stroke-dasharray="7 1" transform="rotate(38.310344827586206, 400, 400)" opacity="0.47"></path><path d="M431.67 144.58C440.37 144.81 449.04 145.95 457.66 147.92 466.27 150.37 474.8 153.58 483.19 157.47 491.53 161.68 499.65 166.47 507.49 171.74 515.18 177.15 522.49 182.92 529.3 188.98 535.85 195 541.78 201.2 547 207.52 551.83 213.67 555.84 219.86 558.94 226.07 562.47 234.97 564.32 252.21 562.93 260.54 560.83 268.44 555.73 284.01 554.05 291.81 554.13 296.85 555.08 302.04 557.13 307.41 560.73 312.63 565.68 318.08 572.06 323.76 580.04 329.34 589.31 335.2 599.68 341.35 611.05 347.44 622.92 353.84 634.85 360.58 646.6 367.27 657.5 374.32 667.03 381.73 675.04 389.11 680.84 396.88 684.05 405.03 684.89 413.18 682.91 421.55 678.3 430.1 671.65 438.66 662.94 447.43 652.64 456.36 641.39 465.32 629.43 474.46 617.23 483.72 605.35 493.01 594 502.41 583.5 511.88 574.22 521.33 566.16 530.81 559.4 540.24 554.16 549.57 550.17 558.78 547.29 567.77 545.72 576.56 544.94 585.01 544.72 593.02 545.29 600.67 546.02 607.75 546.67 614.12 544.84 632.49 530.66 631.6 522.88 626.22 517.21 622.08 510.93 617.32 504.13 612.08 497.17 607.03 489.78 601.84 482.03 596.71 474.21 592.28 466.11 588.25 457.77 584.8 449.41 582.48 440.87 580.99 432.16 580.41 423.45 581.17 414.8 582.84 406.21 585.33 397.61 588.93 389.06 593.09 380.56 597.64 372.02 602.86 363.5 608.11 354.99 613.2 346.42 618.46 337.83 623.22 329.21 627.33 320.53 631.17 311.8 634.1 303.07 636.06 294.27 637.45 285.47 637.75 276.71 636.96 267.96 635.49 259.3 632.93 250.79 629.35 242.41 625.13 234.29 619.99 226.5 614.02 218.98 607.53 211.92 600.36 205.4 592.62 199.3 584.53 193.85 576 189.11 567.15 184.88 558.11 181.4 548.85 178.73 539.48 176.51 530.01 175.05 520.51 174.31 511.05 173.87 501.56 174.01 492.15 174.66 482.86 175.31 473.59 176.27 464.46 177.43 455.51 178.27 446.58 179.12 437.82 179.89 429.27 180.07 420.73 180.06 412.37 179.83 404.24 178.94 396.09 177.89 388.34 176.75 380.96 175.15 373.57 173.66 366.54 172.35 359.86 170.93 353.14 169.93 346.75 169.44 340.68 169.37 331.64 173.53 314.8 177.96 306.91 181.72 301.58 186.27 296.43 191.54 291.43 197.29 286.24 203.66 281.16 210.58 276.16 217.82 270.9 225.47 265.69 233.44 260.49 241.56 255 249.87 249.49 258.32 243.95 266.75 238.12 275.24 232.25 283.74 226.36 292.13 220.2 300.49 214.05 308.82 207.94 317.01 201.66 325.17 195.48 333.31 189.47 341.31 183.42 349.33 177.64 357.38 172.22 365.33 166.93 373.35 162.11 381.48 157.85 389.54 153.91 397.75 150.64 406.11 148.14 414.44 146.09 422.96 144.89 431.66 144.58" stroke-dasharray="11 11" transform="rotate(41.793103448275865, 400, 400)" opacity="0.17"></path><path d="M432.24 156.69C440.46 156.9 448.54 157.96 456.45 159.81 464.34 162.09 472.02 165.11 479.45 168.77 486.81 172.75 493.85 177.28 500.5 182.29 507.01 187.45 513.05 192.99 518.55 198.82 523.81 204.66 528.44 210.71 532.38 216.89 536.01 222.96 538.89 229.11 540.98 235.29 542.79 241.27 543.82 247.26 544.12 253.23 544.03 261.82 541.54 278.54 539.96 286.74 539.41 294.63 542.31 310.5 546.8 318.59 551.51 323.89 557.39 329.36 564.46 335.04 572.82 340.61 582.19 346.42 592.37 352.47 603.26 358.46 614.42 364.73 625.48 371.29 636.24 377.81 646.13 384.64 654.71 391.79 661.91 398.93 667.13 406.41 670.05 414.24 670.89 422.07 669.23 430.07 665.22 438.23 659.4 446.4 651.7 454.73 642.49 463.18 632.34 471.65 621.39 480.23 610.06 488.9 598.82 497.56 587.86 506.27 577.47 514.98 567.97 523.64 559.42 532.25 551.91 540.74 545.65 549.1 540.48 557.27 536.32 565.15 533.35 572.81 531.18 580.08 529.64 586.87 525.75 615.81 514.63 614.27 508.4 609.03 503.83 605.15 498.66 600.78 492.93 596.03 487.06 591.53 480.71 586.94 473.91 582.42 467.05 578.57 459.81 575.07 452.24 572.08 444.64 570.09 436.75 568.81 428.59 568.3 420.44 568.98 412.22 570.42 403.97 572.57 395.72 575.71 387.43 579.33 379.11 583.3 370.78 587.9 362.41 592.56 354.01 597.12 345.59 601.89 337.12 606.28 328.63 610.14 320.12 613.84 311.59 616.81 303.06 618.95 294.55 620.68 286.08 621.47 277.7 621.31 269.4 620.61 261.25 618.94 253.33 616.34 245.59 613.2 238.16 609.19 231.12 604.4 224.4 599.14 218.16 593.2 212.48 586.67 207.22 579.79 202.6 572.44 198.67 564.72 195.2 556.77 192.44 548.55 190.41 540.14 188.77 531.61 187.81 522.96 187.49 514.27 187.38 505.54 187.77 496.81 188.6 488.14 189.38 479.46 190.4 470.87 191.58 462.4 192.42 453.95 193.24 445.62 193.97 437.46 194.13 429.31 194.09 421.31 193.83 413.49 192.95 405.68 191.91 398.21 190.76 391.08 189.17 383.94 187.65 377.13 186.28 370.63 184.76 364.09 183.6 357.84 182.89 351.88 182.34 342.96 185.07 326.16 188.57 318.18 191.63 312.78 195.45 307.52 199.97 302.39 204.95 297.06 210.58 291.81 216.76 286.62 223.3 281.21 230.3 275.81 237.67 270.42 245.26 264.78 253.11 259.12 261.15 253.45 269.28 247.53 277.52 241.59 285.82 235.66 294.1 229.51 302.4 223.4 310.69 217.36 318.91 211.2 327.1 205.17 335.27 199.34 343.36 193.5 351.44 187.96 359.5 182.77 367.5 177.74 375.52 173.17 383.56 169.15 391.57 165.44 399.63 162.37 407.74 160.02 415.84 158.1 424 156.98 432.23 156.69" stroke-dasharray="3 5" transform="rotate(45.275862068965516, 400, 400)" opacity="0.37"></path><path d="M428.87 168.8C436.55 168.99 443.99 169.97 451.16 171.69 458.3 173.81 465.14 176.62 471.64 180.04 478.08 183.77 484.12 188.02 489.71 192.75 495.18 197.64 500.15 202.91 504.56 208.48 508.79 214.09 512.42 219.93 515.41 225.93 518.21 231.86 520.36 237.9 521.86 244 523.21 249.96 523.98 255.94 524.21 261.93 524.4 270.63 523.78 287.69 523.74 296.08 524.41 301.49 525.5 306.93 527.19 312.42 529.86 317.75 533.36 323.17 537.77 328.68 543.35 334.07 549.92 339.6 557.43 345.28 565.96 350.87 575.23 356.65 585.07 362.63 595.37 368.55 605.77 374.7 615.91 381.09 625.69 387.45 634.61 394.08 642.3 400.98 648.74 407.87 653.4 415.05 656.04 422.52 656.87 430 655.5 437.61 652.06 445.32 647.01 453.04 640.25 460.87 632.09 468.76 623.01 476.66 613.09 484.62 602.69 492.6 592.21 500.55 581.79 508.49 571.7 516.36 562.24 524.16 553.45 531.85 545.46 539.35 538.47 546.71 532.38 553.81 527.16 560.59 522.97 567.14 519.54 573.26 516.75 578.89 507.35 600.63 496.97 596.91 491.8 591.94 488.03 588.39 483.7 584.43 478.83 580.2 473.85 576.23 468.38 572.22 462.43 568.29 456.42 564.97 449.99 561.97 443.16 559.4 436.3 557.72 429.09 556.63 421.53 556.2 413.98 556.79 406.28 558.03 398.48 559.86 390.68 562.56 382.78 565.69 374.81 569.11 366.84 573.13 358.79 577.22 350.7 581.24 342.61 585.51 334.47 589.49 326.32 593.05 318.19 596.54 310.07 599.44 301.98 601.65 293.97 603.57 286.04 604.71 278.25 605.03 270.6 604.93 263.15 603.98 255.97 602.21 249.02 599.99 242.42 596.98 236.25 593.24 230.39 589.09 225.04 584.28 220.25 578.89 215.84 573.18 212.05 566.97 208.92 560.35 206.18 553.52 204.09 546.35 202.66 538.94 201.54 531.39 201.02 523.66 201.04 515.83 201.21 507.92 201.81 499.96 202.76 491.98 203.61 483.99 204.66 476.02 205.82 468.11 206.62 460.2 207.39 452.38 208.06 444.66 208.18 436.95 208.11 429.35 207.84 421.88 206.97 414.41 205.95 407.24 204.82 400.37 203.26 393.48 201.74 386.87 200.34 380.53 198.77 374.16 197.49 368.03 196.59 362.14 195.65 353.31 197.08 336.49 199.69 328.4 202.08 322.93 205.17 317.56 208.93 312.28 213.12 306.83 217.93 301.44 223.32 296.09 229.06 290.54 235.29 285 241.94 279.47 248.83 273.73 256.05 267.99 263.52 262.24 271.13 256.29 278.92 250.35 286.81 244.43 294.76 238.36 302.78 232.35 310.81 226.44 318.84 220.45 326.88 214.62 334.88 209.01 342.86 203.44 350.82 198.15 358.73 193.24 366.62 188.49 374.49 184.19 382.31 180.42 390.13 176.94 397.92 174.08 405.68 171.89 413.44 170.11 421.18 169.06 428.86 168.8" stroke-dasharray="10 4" transform="rotate(48.758620689655174, 400, 400)" opacity="0.47"></path><path d="M421.97 180.9C429.06 181.08 435.84 181.98 442.28 183.56 448.7 185.52 454.76 188.11 460.43 191.29 466.04 194.75 471.22 198.72 475.94 203.13 480.57 207.73 484.7 212.7 488.31 217.97 491.81 223.31 494.77 228.89 497.18 234.66 499.5 240.39 501.29 246.26 502.58 252.22 503.86 258.07 504.72 263.98 505.24 269.93 506.14 278.62 507.96 295.83 509.54 304.33 511.34 309.84 513.61 315.38 516.46 320.96 520.2 326.39 524.67 331.89 529.93 337.47 536.14 342.93 543.14 348.49 550.86 354.17 559.35 359.77 568.36 365.52 577.72 371.42 587.35 377.27 596.92 383.31 606.15 389.54 614.97 395.73 622.95 402.15 629.79 408.78 635.51 415.4 639.67 422.26 642.03 429.35 642.85 436.45 641.74 443.61 638.81 450.84 634.47 458.06 628.6 465.33 621.43 472.61 613.39 479.89 604.51 487.17 595.07 494.4 585.43 501.59 575.69 508.72 566.08 515.71 556.86 522.62 548.08 529.36 539.89 535.87 532.44 542.23 525.7 548.3 519.68 554 512.27 562.03 501.64 575.25 497.95 580.2 489.43 585.87 478.92 579.62 474.32 575.02 469.15 570.06 456.3 559.42 448.65 554.32 443.36 551.5 437.63 548.96 431.48 546.78 425.32 545.37 418.77 544.46 411.84 544.09 404.92 544.61 397.8 545.66 390.54 547.2 383.3 549.51 375.91 552.17 368.43 555.09 360.96 558.55 353.41 562.08 345.8 565.58 338.23 569.35 330.61 572.89 323 576.1 315.46 579.33 307.94 582.06 300.5 584.25 293.17 586.25 285.96 587.59 278.94 588.25 272.09 588.59 265.48 588.2 259.17 587.1 253.12 585.64 247.43 583.47 242.18 580.64 235.01 575.57 223.83 562.11 219.94 553.98 217.88 548.21 216.4 542.08 215.49 535.66 214.82 529.11 214.66 522.32 214.97 515.37 215.35 508.34 216.08 501.19 217.1 493.96 217.98 486.71 219.01 479.42 220.11 472.13 220.87 464.83 221.56 457.55 222.16 450.33 222.24 443.1 222.14 435.94 221.85 428.85 221 421.76 220.01 414.92 218.91 408.31 217.39 401.69 215.91 395.29 214.51 389.11 212.92 382.91 211.58 376.9 210.55 371.07 209.29 362.34 209.58 345.51 211.38 337.33 213.13 331.79 215.52 326.34 218.53 320.95 221.93 315.41 225.92 309.92 230.47 304.46 235.36 298.83 240.75 293.22 246.57 287.61 252.66 281.84 259.11 276.07 265.85 270.32 272.77 264.41 279.91 258.53 287.22 252.71 294.63 246.78 302.15 240.93 309.72 235.21 317.35 229.45 325 223.87 332.64 218.52 340.31 213.24 347.94 208.25 355.53 203.63 363.13 199.18 370.67 195.17 378.14 191.66 385.62 188.44 393.03 185.79 400.34 183.76 407.65 182.11 414.87 181.15 421.96 180.9" stroke-dasharray="5 7" transform="rotate(52.24137931034483, 400, 400)" opacity="0.60"></path><path d="M412.39 193.01C418.86 193.16 424.99 193.98 430.76 195.43 439.19 198.41 454.02 207.54 460.34 213.47 466.14 220.06 475.37 234.99 478.84 243.11 481 248.59 482.76 254.23 484.18 259.97 487.27 271.26 489.56 282.82 491.72 294.46 495.56 305.61 500.57 316.86 507.47 328.17 512.05 333.65 517.26 339.18 523.11 344.77 529.71 350.26 536.91 355.82 544.63 361.47 552.9 367.05 561.5 372.74 570.26 378.55 579.15 384.3 587.87 390.2 596.18 396.24 604.07 402.25 611.15 408.43 617.18 414.77 622.24 421.1 625.91 427.61 628.03 434.28 628.82 440.96 627.94 447.66 625.47 454.35 621.79 461.03 616.74 467.71 610.51 474.35 603.48 480.97 595.61 487.53 587.15 493.99 578.42 500.41 569.45 506.7 560.46 512.81 551.67 518.84 543.13 524.66 534.97 530.2 527.35 535.61 520.24 540.7 513.69 545.41 502.65 554.28 493.75 561.32 486.54 566.16 474.06 569.56 461.69 562.46 457.25 558.31 452.44 553.96 440.78 544.82 433.91 540.51 426.59 537.09 409.96 532.67 400.7 531.99 394.41 532.43 387.92 533.31 381.27 534.59 374.64 536.54 367.87 538.77 361 541.22 354.16 544.16 347.24 547.17 340.28 550.16 333.37 553.42 326.44 556.52 319.55 559.36 312.73 562.26 305.98 564.78 299.35 566.85 292.84 568.81 286.49 570.24 280.36 571.1 268.65 572.13 258.11 570.64 249.19 566.75 241.4 561.76 235.52 554.58 231.79 545.59 229.85 538.24 228.67 521.68 229.24 512.68 229.77 506.53 230.57 500.21 231.61 493.76 232.47 487.27 233.44 480.69 234.47 474.05 235.14 467.4 235.75 460.71 236.26 454.02 236.29 447.32 236.16 440.63 235.85 433.96 235.03 427.28 234.08 420.78 233.03 414.47 231.58 408.14 230.15 401.98 228.79 395.98 227.22 389.96 225.85 384.09 224.73 378.36 223.25 369.75 222.6 352.99 223.68 344.78 224.85 339.23 226.6 333.74 228.9 328.29 234.52 317.06 242.31 305.9 251.91 294.83 262.6 283.25 274.66 271.76 287.61 260.52 294.31 254.79 301.15 249.17 308.08 243.69 315.1 238.21 322.18 232.93 329.27 227.88 336.42 222.92 343.56 218.26 350.65 213.96 357.77 209.83 364.84 206.12 371.81 202.89 378.81 199.92 385.71 197.48 392.48 195.63 399.26 194.12 405.91 193.23 412.38 193.01" stroke-dasharray="0 3" transform="rotate(55.724137931034484, 400, 400)" opacity="0.91"></path><path d="M401.29 205.12C413 205.72 423.33 208.7 432.2 213.74 440.97 219.79 448.22 227.52 453.96 236.56 459.69 246.01 464.13 256.37 467.55 267.31 471.53 278.16 475.2 289.35 479.14 300.69 484.72 311.69 491.55 322.82 500.08 334 511.06 344.83 524.01 355.84 538.61 367.02 554.64 377.98 570.89 389.29 585.99 400.93 599.39 412.5 609.19 424.54 614.02 437 614.42 449.46 609.21 461.76 599.33 473.71 586.55 485.59 571.19 496.98 554.72 507.59 538.5 517.88 523.01 527.11 508.96 534.92 496.9 542.1 486.57 547.56 477.78 551.04 470.79 553.69 464.6 554.26 458.71 552.75 453.68 550.7 448.17 546.96 441.83 541.84 435.67 537.16 428.3 531.99 419.63 526.85 410.91 523.47 400.85 521.04 389.48 519.88 378.11 521.28 366.08 523.94 353.71 527.51 341.48 532.81 329.08 538.1 316.85 542.85 305 548 293.6 551.73 283.06 553.74 273.23 555.18 264.59 554.51 257.51 551.75 251.39 548.16 246.99 542.58 244.49 535.29 242.72 527.37 242.56 518.05 243.82 507.67 244.94 496.99 246.74 485.55 248.86 473.63 249.64 461.64 250.02 449.32 249.86 436.87 247.84 424.41 245.5 412.39 243.16 400.86 239.97 389.25 237.64 377.99 236.55 367.09 235.85 355.96 237.03 345.02 240.11 334.26 244.27 323.15 250.41 312.09 258.26 301.16 267.12 289.87 277.37 278.72 288.6 267.9 300.46 256.98 312.93 246.61 325.64 237.13 338.64 228.04 351.64 220.24 364.35 214.1 377.17 208.95 389.58 205.85 401.28 205.12" stroke-dasharray="4 3" transform="rotate(59.206896551724135, 400, 400)" opacity="0.79"></path><path d="M390.04 217.22C400.55 217.75 409.85 220.42 417.91 224.97 425.93 230.42 432.72 237.45 438.37 245.72 444.15 254.43 449.08 264.06 453.44 274.3 458.46 284.56 463.55 295.23 469.13 306.11 476.19 316.77 484.43 327.6 494.1 338.48 505.65 349.12 518.64 359.89 532.67 370.75 547.55 381.45 562.22 392.37 575.57 403.46 587.3 414.5 595.8 425.81 600.02 437.32 600.53 448.83 596.24 459.98 587.88 470.61 576.95 481.16 563.51 491.07 548.75 500.08 533.82 508.83 519.07 516.46 505.19 522.71 492.69 528.47 481.47 532.64 471.54 535.05 463.1 536.88 455.5 536.95 448.41 535.3 442.18 533.36 435.84 530.05 429.1 525.67 422.63 521.81 415.36 517.56 407.17 513.36 398.99 510.68 389.77 508.73 379.54 507.77 369.3 508.95 358.61 511.1 347.73 513.96 336.98 518.32 326.22 522.68 315.77 526.63 305.66 531.06 296.13 534.38 287.51 536.3 276.08 537.84 261.07 531.23 258.01 523.25 256.97 516.9 257.25 509.19 258.67 500.37 259.79 491.29 261.42 481.33 263.27 470.74 263.86 460.07 264.1 448.91 263.87 437.4 261.96 425.89 259.8 414.59 257.62 403.58 254.58 392.51 252.25 381.64 250.91 370.98 249.76 360.17 250.17 349.46 252.21 338.87 255.07 328.05 259.69 317.27 265.88 306.65 272.93 295.82 281.35 285.17 290.78 274.92 300.81 264.68 311.56 255.04 322.65 246.29 334.07 237.96 345.6 230.86 356.94 225.31 368.4 220.66 379.52 217.88 390.03 217.22" stroke-dasharray="9 4" transform="rotate(62.689655172413794, 400, 400)" opacity="0.98"></path><path d="M380 229.33C389.39 229.79 397.84 232.15 405.34 236.2 412.83 241.07 419.46 247.37 425.3 254.84 431.37 262.76 436.96 271.57 442.34 281 448.39 290.56 454.73 300.56 461.66 310.8 469.82 320.96 479.01 331.3 489.3 341.7 500.94 351.96 513.55 362.31 526.69 372.7 540.23 382.98 553.28 393.37 564.92 403.81 575.06 414.21 582.36 424.72 586.01 435.23 586.61 445.74 583.14 455.73 576.17 465.09 566.96 474.37 555.4 482.89 542.42 490.47 529 497.83 515.34 504.08 502.08 509.04 489.67 513.63 478.12 516.8 467.57 518.46 458.14 519.73 449.49 519.53 441.44 517.93 434.15 516.24 427 513.46 419.78 509.83 412.87 506.75 405.54 503.37 397.66 500.01 389.82 497.96 381.3 496.45 372.09 495.67 362.89 496.65 353.48 498.34 344.09 500.56 334.8 504.07 325.67 507.56 316.99 510.73 308.59 514.42 300.85 517.23 294.03 518.93 279.58 518.3 272.03 501.53 273.73 490.95 274.75 483.31 276.14 474.74 277.69 465.42 278.07 456.04 278.16 446.02 277.87 435.51 276.1 424.99 274.13 414.49 272.15 404.11 269.33 393.7 267.07 383.33 265.62 373.09 264.18 362.74 264.01 352.42 265.21 342.21 266.98 331.84 270.27 321.54 274.95 311.41 280.33 301.19 286.98 291.2 294.64 281.64 302.83 272.19 311.78 263.35 321.19 255.39 330.91 247.86 340.85 241.48 350.76 236.53 360.78 232.38 370.6 229.9 380 229.33" stroke-dasharray="9 8" transform="rotate(66.17241379310344, 400, 400)" opacity="0.88"></path><path d="M372.4 241.43C380.78 241.82 388.52 243.89 395.62 247.45 402.76 251.72 409.37 257.3 415.54 263.94 421.95 271.02 428.21 278.95 434.49 287.51 441.38 296.23 448.67 305.43 456.53 314.9 465.34 324.37 474.97 334.04 485.38 343.79 496.68 353.48 508.54 363.25 520.54 373 532.62 382.7 544.02 392.43 554.02 402.09 562.68 411.75 568.89 421.38 572 430.86 572.66 440.35 569.92 449.21 564.2 457.35 556.59 465.43 546.83 472.7 535.65 479.03 523.87 485.19 511.56 490.3 499.3 494.23 487.46 497.91 476.11 500.35 465.45 501.51 455.57 502.45 446.33 502.19 437.67 500.79 429.62 499.44 421.86 497.23 414.25 494.35 406.95 492.01 399.51 489.42 391.86 486.82 384.28 485.32 376.34 484.19 368.06 483.56 359.78 484.37 351.56 485.66 343.56 487.32 335.63 490.05 328.04 492.75 320.99 495.19 303.51 501.27 288.14 500 287.22 495.02 287.01 491.04 287.63 485.88 288.94 479.67 289.77 473.29 290.88 465.98 292.1 457.87 292.28 449.7 292.22 440.82 291.88 431.33 290.26 421.84 288.49 412.21 286.73 402.57 284.18 392.91 282.09 383.2 280.63 373.53 279.05 363.8 278.5 354.06 279.07 344.4 279.98 334.67 282.17 325.01 285.58 315.56 289.48 306.09 294.54 296.89 300.56 288.15 307 279.57 314.22 271.6 321.99 264.47 330.01 257.77 338.38 252.12 346.87 247.76 355.45 244.1 364.03 241.93 372.4 241.43" stroke-dasharray="6 11" transform="rotate(69.65517241379311, 400, 400)" opacity="0.66"></path><path d="M368.18 253.54C375.63 253.86 382.76 255.64 389.56 258.72 396.4 262.41 403.02 267.26 409.48 273.07 416.17 279.28 422.93 286.29 429.85 293.89 437.26 301.7 445.1 309.98 453.41 318.55 462.41 327.18 471.99 336.04 482.05 344.98 492.63 353.91 503.45 362.92 514.13 371.89 524.67 380.84 534.44 389.77 542.88 398.57 550.16 407.37 555.36 416.06 558 424.5 558.69 432.94 556.57 440.71 551.97 447.73 545.81 454.71 537.76 460.87 528.34 466.15 518.27 471.3 507.5 475.49 496.52 478.64 485.66 481.64 474.97 483.59 464.7 484.47 454.9 485.26 445.55 485.08 436.72 484 428.32 483.04 420.25 481.41 412.48 479.26 404.95 477.59 397.5 475.71 390.11 473.78 382.78 472.75 375.38 471.95 367.93 471.45 360.48 472.1 353.33 473.05 346.57 474.22 336.73 477.27 320.07 483.09 313.74 484.92 305.82 484.82 302.86 474.2 304.22 466.91 304.8 461.6 305.6 455.4 306.48 448.4 306.46 441.35 306.27 433.57 305.88 425.12 304.42 416.67 302.87 407.98 301.35 399.19 299.12 390.39 297.25 381.47 295.9 372.53 294.32 363.58 293.57 354.58 293.71 345.66 294.01 336.73 295.36 327.87 297.74 319.24 300.44 310.66 304.15 302.37 308.75 294.54 313.64 286.9 319.31 279.84 325.57 273.58 332.01 267.7 338.9 262.78 346.08 259.01 353.31 255.84 360.72 253.96 368.18 253.54" stroke-dasharray="2 6" transform="rotate(73.13793103448276, 400, 400)" opacity="0.55"></path><path d="M367.84 265.65C374.46 265.9 381.03 267.4 387.5 270.02 394.04 273.14 400.58 277.28 407.16 282.25 413.93 287.59 420.9 293.65 428.09 300.26 435.64 307.09 443.57 314.36 451.86 321.94 460.58 329.6 469.67 337.5 478.98 345.5 488.54 353.53 498.11 361.63 507.35 369.68 516.33 377.75 524.52 385.76 531.5 393.61 537.51 401.47 541.8 409.16 543.99 416.56 544.68 423.96 543.1 430.69 539.49 436.69 534.64 442.67 528.15 447.88 520.42 452.27 512.06 456.6 502.93 460.07 493.42 462.66 483.84 465.18 474.19 466.82 464.73 467.6 455.5 468.38 446.54 468.38 437.97 467.67 429.67 467.13 421.69 466.06 414.03 464.57 406.56 463.5 399.3 462.24 392.25 460.89 385.27 460.25 378.41 459.72 371.72 459.35 361.92 460.19 344.85 463.42 337.8 465.25 320.71 463.41 320.03 446.07 320.82 437.46 320.61 431.44 320.3 424.69 319.89 417.29 318.58 409.88 317.26 402.18 316 394.32 314.11 386.47 312.52 378.46 311.35 370.4 309.9 362.35 309.1 354.25 309.01 346.22 308.94 338.22 309.72 330.32 311.34 322.64 313.13 315.05 315.78 307.74 319.22 300.89 322.84 294.23 327.19 288.13 332.15 282.73 337.23 277.69 342.82 273.49 348.82 270.29 354.85 267.58 361.22 265.99 367.84 265.65" stroke-dasharray="5 1" transform="rotate(76.62068965517241, 400, 400)" opacity="0.56"></path><path d="M371.43 277.75C377.28 277.95 383.27 279.19 389.35 281.36 395.47 283.94 401.77 287.38 408.21 291.54 421.51 300.75 436.01 312.36 451.35 325.24 467.6 338.57 484.43 352.73 500.1 366.76 507.54 373.82 514.23 380.82 519.86 387.66 524.73 394.51 528.19 401.17 529.99 407.54 530.66 413.91 529.53 419.66 526.77 424.75 523.07 429.82 518 434.22 511.85 437.9 497.95 445.17 481.62 449.57 464.96 451.15 448.55 452.9 432.69 452.44 418.17 450.3 411.07 449.75 404.23 449.01 397.68 448.14 388.05 447.67 370.3 447.84 362.76 448.48 348.14 451.65 333.6 448.26 334.69 438.77 334.77 432.87 334.53 417.6 333.9 408.34 332.75 401.96 331.66 395.29 330.65 388.43 329.12 381.59 327.85 374.59 326.91 367.52 324.27 353.47 323.93 339.29 326.16 325.93 328.6 312.99 333.9 301.3 341.67 291.98 347.89 286.01 362.86 278.69 371.43 277.75" stroke-dasharray="2 4" transform="rotate(80.10344827586208, 400, 400)" opacity="0.35"></path><path d="M378.51 289.86C388.72 290.5 400 294.46 411.93 300.97 424.2 308.44 437.52 317.98 451.3 328.67 465.42 339.79 479.58 351.7 492.31 363.56 503.88 375.54 512.34 387.31 515.98 398.04 516.42 408.77 511.49 417.33 502.57 423.56 491.8 429.74 478.66 433.64 464.8 435.34 450.78 437.3 436.83 437.57 423.87 436.47 411.14 436.5 399.25 435.99 388.77 435.14 378.3 436.18 370.04 436.87 364.04 436.98 355.99 438.12 349.57 432.53 349.72 424.41 348.78 418.17 348.2 409.59 347.9 398.85 345.42 388.1 343.53 376.32 342.51 364.32 340.44 352.44 340.16 340.49 341.9 329.32 343.54 318.56 347.53 308.94 353.73 301.37 359.98 294.74 368.3 290.65 378.51 289.86" stroke-dasharray="7 9" transform="rotate(83.58620689655173, 400, 400)" opacity="0.73"></path><path d="M388.22 301.97C396.94 302.41 406.81 305.48 417.34 310.57 428.04 316.39 439.53 323.91 451.13 332.43 462.74 341.31 474.06 350.91 483.92 360.53 492.82 370.27 499.23 379.87 501.97 388.66 502.55 397.44 499.1 404.51 492.56 409.75 484.64 414.99 474.62 418.51 463.69 420.37 452.45 422.5 440.93 423.34 430 423.07 419.14 423.63 408.93 423.6 399.96 423.03 387.47 423.84 371.85 423.51 368.22 421.07 365.26 417.51 362.76 401.77 361.91 389.44 359.91 380.63 358.58 371.01 358.05 361.24 356.64 351.59 356.62 341.95 358.17 333.01 359.47 324.43 362.63 316.83 367.66 310.92 372.63 305.72 379.5 302.54 388.22 301.97" stroke-dasharray="5 8" transform="rotate(87.06896551724138, 400, 400)" opacity="0.76"></path><path d="M399.37 314.07C406.53 314.36 414.68 316.6 423.33 320.39 432.04 324.67 441.23 330.28 450.29 336.7 459.22 343.4 467.7 350.72 474.89 358.13 481.38 365.63 486 373.09 487.97 380.01 488.59 386.93 486.34 392.59 481.83 396.94 476.39 401.31 469.24 404.46 461.19 406.41 452.82 408.57 443.99 409.79 435.39 410.11 426.77 410.98 418.52 411.27 411.14 410.92 394.08 410.48 380.45 403.53 378.94 397.62 377.43 393.29 376.4 387.63 375.92 380.7 374.39 373.78 373.56 366.29 373.45 358.76 372.7 351.32 373.03 343.96 374.54 337.21 377.11 327.88 389.4 315.63 399.37 314.07" stroke-dasharray="5 9" transform="rotate(90.55172413793103, 400, 400)" opacity="0.62"></path><path d="M410.59 326.18C421.63 326.87 435.35 332.9 448.29 341.69 460.66 351.15 470.61 362.43 473.96 372.66 474.37 382.88 467.47 389.97 456.94 393.57 445.44 397.76 432.28 399.62 420.97 398.82 409.65 399.8 402.05 398.1 398.11 394.02 393.12 390.5 390.26 383.46 389.92 373.22 387.15 362.98 387.36 351.64 390.55 342.09 392.91 333.2 399.54 327.03 410.59 326.18" stroke-dasharray="1 3" transform="rotate(94.03448275862068, 400, 400)" opacity="0.89"></path><path d="M420.51 338.28C428.05 338.58 436.85 342.17 444.74 347.57 455.18 356.79 458.68 376.37 450.68 381.96 444.06 385.28 435.9 387.04 428.23 386.71 417.66 386.33 405.76 376.75 403.93 367.46 402.64 357.16 410.49 340.54 420.51 338.28" stroke-dasharray="3 9" transform="rotate(97.51724137931035, 400, 400)" opacity="0.87"></path></g></svg>